<svg width="230" height="230" viewBox="0 0 230 230" fill="none" xmlns="http://www.w3.org/2000/svg">
<path fill-rule="evenodd" clip-rule="evenodd" d="M150.765 203.837C156.67 201.593 165.884 196.662 172.552 192.18C180.53 186.817 191.491 176.589 196.95 169.414C206.754 156.527 211.883 143.419 214.83 123.717C216.813 110.468 216.954 107.104 217.136 68.6483C217.331 27.7499 217.508 30.317 214.267 27.0766C211.14 23.9493 212.99 24.0898 174.902 24.0898C138.115 24.0898 139.403 24.0148 136.364 26.3331C135.588 26.9249 134.468 28.2346 133.874 29.2433L132.796 31.0777L132.688 65.9231L132.58 100.768L133.442 102.774C134.455 105.129 137.236 107.753 139.336 108.336C140.197 108.575 147.371 108.739 157.054 108.74L173.326 108.743L173.326 111.253C173.326 116.97 171.696 126.672 169.655 133.1C166.943 141.646 162.804 148.537 156.809 154.487C151.918 159.343 146.254 163.198 138.292 167.094C132.47 169.942 131.597 170.649 129.998 173.808C129.574 174.644 129.292 176.135 129.278 177.609C129.258 179.743 129.524 180.609 131.49 184.818C138.974 200.835 139.586 201.851 142.712 203.446C145.005 204.615 148.297 204.775 150.765 203.837ZM32.6856 204.13C34.8986 203.721 45.3041 198.629 50.9387 195.198C68.033 184.787 81.3766 170.839 89.185 155.219C94.8946 143.798 97.7229 132.26 99.7147 112.26C100.244 106.946 100.396 98.9991 100.539 69.0508C100.736 27.7035 100.915 30.3218 97.6702 27.0766C94.5433 23.9497 96.3909 24.0898 58.3259 24.0898C21.2236 24.0898 22.5241 24.0091 19.507 26.496C18.7155 27.1485 17.6027 28.6163 17.0337 29.7579L15.9995 31.8335L16.0082 66.3946C16.017 100.301 16.0326 100.99 16.8304 102.753C17.7652 104.819 19.1911 106.427 21.1904 107.672C22.5557 108.523 22.9845 108.548 39.7525 108.743L56.9171 108.942L56.7953 112.137C56.4803 120.388 54.4885 130.207 51.7221 137.144C48.8779 144.276 45.4714 149.479 40.302 154.585C35.5974 159.232 30.7941 162.543 23.2544 166.337C16.0266 169.973 14.0065 171.649 13.1883 174.687C12.22 178.283 12.7299 180.094 17.4957 190.001C20.1554 195.53 22.5157 199.883 23.4261 200.939C25.7389 203.621 29.1234 204.788 32.6856 204.13Z" fill="#4FA4DA" fill-opacity="0.2"/>
</svg>
