<svg xmlns="http://www.w3.org/2000/svg" fill="none" viewBox="0 0 265 197"><ellipse cx="132.5" cy="73" fill="#5192CE" rx="132.5" ry="73"/><ellipse cx="133" cy="91" fill="#53B6E7" rx="119" ry="73"/><ellipse cx="132" cy="108" fill="#4EC6F2" rx="110" ry="73"/><ellipse cx="131.5" cy="124" fill="#4FA4DA" rx="98.5" ry="73"/><path fill="#fff" d="M132.125 102.551c-.713-.735-1.861-.735-2.534 0l-15.997 16.45a2.115 2.115 0 0 0 0 2.939 1.966 1.966 0 0 0 2.851 0l13.106-13.511c.713-.735 1.861-.735 2.534 0l13.107 13.511a1.966 1.966 0 0 0 2.851 0 2.115 2.115 0 0 0 0-2.939l-15.918-16.45Z"/><path fill="#fff" d="M132.378 111.999c-.712-.735-1.861-.735-2.534 0l-15.997 16.45a2.115 2.115 0 0 0 0 2.939 1.966 1.966 0 0 0 2.851 0l13.107-13.511c.712-.735 1.861-.735 2.534 0l13.106 13.511a1.966 1.966 0 0 0 2.851 0 2.115 2.115 0 0 0 0-2.939l-15.918-16.45Z"/></svg>