<svg xmlns="http://www.w3.org/2000/svg" fill="none" viewBox="0 0 46 38"><path fill="#4FA4DA" fill-rule="evenodd" d="m33 1-3 2-2-1-3-1h-2a77 77 0 0 0-9 5l-1 3v1l2 2h2a79 79 0 0 0 9-5h2l8 5 8 4h1v-1l-4-7a1536 1536 0 0 0-5-8l-3 1ZM8 2l-4 8-4 8 1 1 1-1 1-2c2-2 6-3 8-1l1 1 1-1c3 0 5 2 6 4v1h1l2 2 1 2 1 1 3 3v2c1 1 0 2-1 4l-1 2 4 2h1c2 0 2-1 3-2v-1l-1-2 1 1h4l1-3v-2s-1 0 0 0l2 1 2-1 1-2-2-3h-1 1l3-2v-2l-9-6-8-5-4 3-7 3-1-1c-2 0-4-2-4-4V8l1-3 1-1-2-1-3-1ZM6 17l-1 1-4 6 2 4h2l1-1h1-1l2 4h3v-1h1v2a3 3 0 0 0 5 1l1 3h4l1-3 2-3-2-3h-1l-2 1v-1l1-2-1-1-1-1-1-1-2 1v-3l-1-2h-3l-1 2h-1v-2l-2-1H6Z" clip-rule="evenodd"/></svg>