<svg width="24" height="24" viewBox="0 0 24 24" fill="none" xmlns="http://www.w3.org/2000/svg">
<path d="M11.999 7.37695C10.7726 7.37695 9.59651 7.86412 8.72934 8.73129C7.86217 9.59846 7.375 10.7746 7.375 12.001C7.375 13.2273 7.86217 14.4034 8.72934 15.2706C9.59651 16.1378 10.7726 16.625 11.999 16.625C13.2254 16.625 14.4015 16.1378 15.2687 15.2706C16.1358 14.4034 16.623 13.2273 16.623 12.001C16.623 10.7746 16.1358 9.59846 15.2687 8.73129C14.4015 7.86412 13.2254 7.37695 11.999 7.37695V7.37695ZM11.999 15.004C11.2023 15.004 10.4382 14.6875 9.87485 14.1241C9.31149 13.5607 8.995 12.7967 8.995 12C8.995 11.2032 9.31149 10.4392 9.87485 9.8758C10.4382 9.31245 11.2023 8.99595 11.999 8.99595C12.7957 8.99595 13.5598 9.31245 14.1231 9.8758C14.6865 10.4392 15.003 11.2032 15.003 12C15.003 12.7967 14.6865 13.5607 14.1231 14.1241C13.5598 14.6875 12.7957 15.004 11.999 15.004V15.004Z" fill="white"/>
<path d="M16.8046 8.28491C17.3999 8.28491 17.8826 7.80227 17.8826 7.20691C17.8826 6.61154 17.3999 6.12891 16.8046 6.12891C16.2092 6.12891 15.7266 6.61154 15.7266 7.20691C15.7266 7.80227 16.2092 8.28491 16.8046 8.28491Z" fill="white"/>
<path d="M20.531 6.10991C20.2995 5.51209 19.9457 4.96919 19.4923 4.51596C19.0389 4.06274 18.4959 3.70918 17.898 3.47791C17.1983 3.21526 16.4592 3.07325 15.712 3.05791C14.749 3.01591 14.444 3.00391 12.002 3.00391C9.56 3.00391 9.247 3.00391 8.292 3.05791C7.54539 3.07246 6.80676 3.21451 6.108 3.47791C5.50994 3.70891 4.96676 4.06238 4.51333 4.51563C4.0599 4.96889 3.70623 5.51193 3.475 6.10991C3.2123 6.80952 3.07061 7.54874 3.056 8.29591C3.013 9.25791 3 9.56291 3 12.0059C3 14.4479 3 14.7589 3.056 15.7159C3.071 16.4639 3.212 17.2019 3.475 17.9029C3.70688 18.5007 4.0609 19.0435 4.51444 19.4967C4.96798 19.9499 5.51106 20.3035 6.109 20.5349C6.80643 20.8081 7.54537 20.9603 8.294 20.9849C9.257 21.0269 9.562 21.0399 12.004 21.0399C14.446 21.0399 14.759 21.0399 15.714 20.9849C16.4611 20.9697 17.2002 20.828 17.9 20.5659C18.4978 20.3341 19.0406 19.9802 19.494 19.5269C19.9473 19.0735 20.3012 18.5307 20.533 17.9329C20.796 17.2329 20.937 16.4949 20.952 15.7469C20.995 14.7849 21.008 14.4799 21.008 12.0369C21.008 9.59391 21.008 9.28391 20.952 8.32691C20.9404 7.56918 20.7979 6.81915 20.531 6.10991V6.10991ZM19.313 15.6419C19.3066 16.2182 19.2014 16.7891 19.002 17.3299C18.8518 17.7188 18.6219 18.0719 18.3271 18.3666C18.0322 18.6613 17.679 18.891 17.29 19.0409C16.7552 19.2394 16.1904 19.3445 15.62 19.3519C14.67 19.3959 14.402 19.4069 11.966 19.4069C9.528 19.4069 9.279 19.4069 8.311 19.3519C7.74093 19.3449 7.17633 19.2397 6.642 19.0409C6.25169 18.8919 5.897 18.6626 5.60089 18.3679C5.30478 18.0731 5.07384 17.7195 4.923 17.3299C4.72645 16.795 4.62131 16.2307 4.612 15.6609C4.569 14.7109 4.559 14.4429 4.559 12.0069C4.559 9.56991 4.559 9.32091 4.612 8.35191C4.61846 7.77593 4.72366 7.20533 4.923 6.66491C5.228 5.87591 5.853 5.25491 6.642 4.95291C7.17659 4.75505 7.74103 4.64987 8.311 4.64191C9.262 4.59891 9.529 4.58691 11.966 4.58691C14.403 4.58691 14.653 4.58691 15.62 4.64191C16.1904 4.64877 16.7554 4.75398 17.29 4.95291C17.6789 5.10318 18.0321 5.33311 18.327 5.62794C18.6218 5.92276 18.8517 6.27598 19.002 6.66491C19.1986 7.19986 19.3037 7.76407 19.313 8.33391C19.356 9.28491 19.367 9.55191 19.367 11.9889C19.367 14.4249 19.367 14.6869 19.324 15.6429H19.313V15.6419Z" fill="white"/>
</svg>
