<svg width="92" height="248" viewBox="0 0 92 248" fill="none" xmlns="http://www.w3.org/2000/svg">
<path d="M82.7688 213.264C88.6324 226.919 84.024 237.872 84.024 237.872C84.024 237.872 74.1004 236.457 68.2415 222.801C62.3899 209.123 62.7971 188.382 62.7971 188.382C62.7971 188.382 76.9196 199.594 82.7712 213.266L82.7688 213.264Z" fill="#4FA4DA"/>
<path d="M65.8399 248C78.3432 248.041 84.0128 237.884 84.0128 237.884C84.0128 237.884 78.3744 227.692 65.8735 227.665C53.363 227.621 38.7207 237.763 38.7207 237.763C38.7207 237.763 53.3246 247.988 65.8375 248H65.8399Z" fill="#4FA4DA"/>
<path d="M58.0853 196.584C61.1967 209.765 55.5846 218.246 55.5846 218.246C55.5846 218.246 47.1796 214.801 44.073 201.628C40.9663 188.45 44.3508 170.488 44.3508 170.488C44.3508 170.488 54.9978 183.394 58.0853 196.584Z" fill="#4FA4DA"/>
<path d="M38.3061 223C49.1591 225.817 55.588 218.258 55.588 218.258C55.588 218.258 52.1604 208.148 41.3002 205.328C30.4353 202.505 16.2266 208.062 16.2266 208.062C16.2266 208.062 27.4364 220.189 38.3061 223.003V223Z" fill="#4FA4DA"/>
<path d="M40.7804 173.107C41.142 185.085 34.9287 190.796 34.9287 190.796C34.9287 190.796 28.392 185.684 28.0375 173.699C27.6735 161.703 33.6257 147.402 33.6257 147.402C33.6257 147.402 40.4235 161.122 40.7804 173.107Z" fill="#4FA4DA"/>
<path d="M19.4696 190.272C28.1812 195.521 34.9167 190.808 34.9167 190.808C34.9167 190.808 33.7645 181.338 25.0386 176.084C16.3174 170.856 3.33984 171.809 3.33984 171.809C3.33984 171.809 10.7556 185.044 19.4696 190.272Z" fill="#4FA4DA"/>
<path d="M32.1643 143.714C29.0576 154.289 22.0491 156.543 22.0491 156.543C22.0491 156.543 17.8166 149.235 20.9233 138.664C24.0156 128.098 33.2613 118.279 33.2613 118.279C33.2613 118.279 35.2566 133.148 32.1643 143.714Z" fill="#4FA4DA"/>
<path d="M8.74512 149.369C14.8339 157.725 22.0317 156.543 22.0317 156.543C22.0317 156.543 23.7227 147.822 17.6435 139.466C11.55 131.116 0 126.291 0 126.291C0 126.291 2.67312 140.995 8.74512 149.366V149.369Z" fill="#4FA4DA"/>
<path d="M30.4606 112.766C25.4521 122.153 18.2184 122.346 18.2184 122.346C18.2184 122.346 15.4662 114.034 20.4676 104.644C25.4545 95.2455 36.2907 88.3291 36.2907 88.3291C36.2907 88.3291 35.4547 103.376 30.4606 112.766Z" fill="#4FA4DA"/>
<path d="M6.64132 111.546C10.9863 121.407 18.2033 122.346 18.2033 122.346C18.2033 122.346 21.4872 114.342 17.1302 104.467C12.778 94.6058 2.43523 86.6023 2.43523 86.6023C2.43523 86.6023 2.28194 101.685 6.64132 111.546Z" fill="#4FA4DA"/>
<path d="M35.5586 84.3008C29.0099 90.8588 22.5619 88.498 22.5619 88.498C22.5619 88.498 22.0349 80.1894 28.5836 73.6432C35.137 67.0733 46.287 64.7422 46.287 64.7422C46.287 64.7422 42.1145 77.725 35.5586 84.3008Z" fill="#4FA4DA"/>
<path d="M14.7962 74.908C16.389 85.1597 22.5568 88.4802 22.5568 88.4802C22.5568 88.4802 27.2683 82.5649 25.6779 72.3161C24.0778 62.091 16.7819 51.3979 16.7819 51.3979C16.7819 51.3979 13.1937 64.674 14.7938 74.9109L14.7962 74.908Z" fill="#4FA4DA"/>
<path d="M68.7961 26.0394C63.3517 26.2793 60.748 21.9666 60.748 21.9666C60.748 21.9666 63.0858 17.4227 68.5327 17.1739C73.9819 16.9429 80.4826 21.0602 80.4826 21.0602C80.4826 21.0602 74.2454 25.7788 68.7961 26.0394Z" fill="#4FA4DA"/>
<path d="M60.9963 11.2115C58.6059 17.2748 60.7472 21.952 60.7472 21.952C60.7472 21.952 65.0635 21.1552 67.4348 15.0947C69.8253 9.0373 69.3965 0 69.3965 0C69.3965 0 63.3748 5.15401 60.9939 11.2144L60.9963 11.2115Z" fill="#4FA4DA"/>
<path d="M57.2277 40.5536C50.3053 42.1324 46.334 37.2065 46.334 37.2065C46.334 37.2065 48.6263 30.8676 55.5558 29.2859C62.4853 27.716 71.422 31.5104 71.422 31.5104C71.422 31.5104 64.1548 38.9659 57.2277 40.5566V40.5536Z" fill="#4FA4DA"/>
<path d="M45.0188 23.4121C42.887 31.7089 46.329 37.2035 46.329 37.2035C46.329 37.2035 51.7111 35.1745 53.8453 26.8807C55.9651 18.5809 54.0633 7.13843 54.0633 7.13843C54.0633 7.13843 47.1482 15.1123 45.0188 23.4091V23.4121Z" fill="#4FA4DA"/>
<path d="M44.1092 60.7728C37.1318 65.204 31.6299 61.5281 31.6299 61.5281C31.6299 61.5281 32.4203 53.8474 39.3953 49.4161C46.3823 44.9967 56.9023 45.4944 56.9023 45.4944C56.9023 45.4944 51.0842 56.3593 44.1092 60.7728Z" fill="#4FA4DA"/>
<path d="M26.6229 47.34C26.5104 57.026 31.6099 61.5165 31.6099 61.5165C31.6099 61.5165 36.8244 57.2481 36.9489 47.5355C37.0759 37.8317 32.065 26.3862 32.065 26.3862C32.065 26.3862 26.7714 37.6214 26.6229 47.34Z" fill="#4FA4DA"/>
<path d="M79.6474 5.97445C74.4808 8.12195 73.2832 13.2967 73.2832 13.2967C73.2832 13.2967 76.7468 16.5165 81.9229 14.3867C87.1039 12.2333 91.9998 5.52125 91.9998 5.52125C91.9998 5.52125 84.814 3.81509 79.6474 5.97148V5.97445Z" fill="#4FA4DA"/>
</svg>
