<svg width="92" height="248" viewBox="0 0 92 248" fill="none" xmlns="http://www.w3.org/2000/svg">
<path d="M9.23117 213.264C3.36755 226.919 7.97605 237.872 7.97605 237.872C7.97605 237.872 17.8996 236.457 23.7585 222.801C29.6101 209.123 29.2029 188.382 29.2029 188.382C29.2029 188.382 15.0804 199.594 9.22877 213.266L9.23117 213.264Z" fill="#4FA4DA"/>
<path d="M26.1601 248C13.6568 248.041 7.98719 237.884 7.98719 237.884C7.98719 237.884 13.6256 227.692 26.1265 227.665C38.637 227.621 53.2793 237.763 53.2793 237.763C53.2793 237.763 38.6754 247.988 26.1625 248H26.1601Z" fill="#4FA4DA"/>
<path d="M33.9147 196.584C30.8033 209.765 36.4154 218.246 36.4154 218.246C36.4154 218.246 44.8204 214.801 47.927 201.628C51.0337 188.45 47.6492 170.488 47.6492 170.488C47.6492 170.488 37.0022 183.394 33.9147 196.584Z" fill="#4FA4DA"/>
<path d="M53.6939 223C42.8409 225.817 36.412 218.258 36.412 218.258C36.412 218.258 39.8396 208.148 50.6998 205.328C61.5647 202.505 75.7734 208.062 75.7734 208.062C75.7734 208.062 64.5636 220.189 53.6939 223.003V223Z" fill="#4FA4DA"/>
<path d="M51.2196 173.107C50.858 185.085 57.0713 190.796 57.0713 190.796C57.0713 190.796 63.608 185.684 63.9625 173.699C64.3265 161.703 58.3743 147.402 58.3743 147.402C58.3743 147.402 51.5765 161.122 51.2196 173.107Z" fill="#4FA4DA"/>
<path d="M72.5304 190.272C63.8188 195.521 57.0833 190.808 57.0833 190.808C57.0833 190.808 58.2355 181.338 66.9614 176.084C75.6826 170.856 88.6602 171.809 88.6602 171.809C88.6602 171.809 81.2444 185.044 72.5304 190.272Z" fill="#4FA4DA"/>
<path d="M59.8357 143.714C62.9424 154.289 69.9509 156.543 69.9509 156.543C69.9509 156.543 74.1834 149.235 71.0767 138.664C67.9844 128.098 58.7387 118.279 58.7387 118.279C58.7387 118.279 56.7434 133.148 59.8357 143.714Z" fill="#4FA4DA"/>
<path d="M83.2549 149.369C77.1661 157.725 69.9683 156.543 69.9683 156.543C69.9683 156.543 68.2773 147.822 74.3565 139.466C80.45 131.116 92 126.291 92 126.291C92 126.291 89.3269 140.995 83.2549 149.366V149.369Z" fill="#4FA4DA"/>
<path d="M61.5394 112.766C66.5479 122.153 73.7816 122.346 73.7816 122.346C73.7816 122.346 76.5338 114.034 71.5324 104.644C66.5455 95.2455 55.7093 88.3291 55.7093 88.3291C55.7093 88.3291 56.5453 103.376 61.5394 112.766Z" fill="#4FA4DA"/>
<path d="M85.3587 111.546C81.0137 121.407 73.7967 122.346 73.7967 122.346C73.7967 122.346 70.5128 114.342 74.8698 104.467C79.222 94.6058 89.5648 86.6023 89.5648 86.6023C89.5648 86.6023 89.7181 101.685 85.3587 111.546Z" fill="#4FA4DA"/>
<path d="M56.4414 84.3008C62.9901 90.8588 69.4381 88.498 69.4381 88.498C69.4381 88.498 69.9651 80.1894 63.4164 73.6432C56.863 67.0733 45.713 64.7422 45.713 64.7422C45.713 64.7422 49.8855 77.725 56.4414 84.3008Z" fill="#4FA4DA"/>
<path d="M77.2038 74.908C75.611 85.1597 69.4432 88.4802 69.4432 88.4802C69.4432 88.4802 64.7317 82.5649 66.3221 72.3161C67.9222 62.091 75.2181 51.3979 75.2181 51.3979C75.2181 51.3979 78.8063 64.674 77.2062 74.9109L77.2038 74.908Z" fill="#4FA4DA"/>
<path d="M23.2039 26.0394C28.6483 26.2793 31.252 21.9666 31.252 21.9666C31.252 21.9666 28.9142 17.4227 23.4673 17.1739C18.0181 16.9429 11.5174 21.0602 11.5174 21.0602C11.5174 21.0602 17.7546 25.7788 23.2039 26.0394Z" fill="#4FA4DA"/>
<path d="M31.0037 11.2115C33.3941 17.2748 31.2528 21.952 31.2528 21.952C31.2528 21.952 26.9365 21.1552 24.5652 15.0947C22.1747 9.0373 22.6035 0 22.6035 0C22.6035 0 28.6252 5.15401 31.0061 11.2144L31.0037 11.2115Z" fill="#4FA4DA"/>
<path d="M34.7723 40.5536C41.6947 42.1324 45.666 37.2065 45.666 37.2065C45.666 37.2065 43.3737 30.8676 36.4442 29.2859C29.5147 27.716 20.578 31.5104 20.578 31.5104C20.578 31.5104 27.8452 38.9659 34.7723 40.5566V40.5536Z" fill="#4FA4DA"/>
<path d="M46.9812 23.4121C49.113 31.7089 45.671 37.2035 45.671 37.2035C45.671 37.2035 40.2889 35.1745 38.1547 26.8807C36.0349 18.5809 37.9367 7.13843 37.9367 7.13843C37.9367 7.13843 44.8518 15.1123 46.9812 23.4091V23.4121Z" fill="#4FA4DA"/>
<path d="M47.8908 60.7728C54.8682 65.204 60.3701 61.5281 60.3701 61.5281C60.3701 61.5281 59.5797 53.8474 52.6047 49.4161C45.6177 44.9967 35.0977 45.4944 35.0977 45.4944C35.0977 45.4944 40.9158 56.3593 47.8908 60.7728Z" fill="#4FA4DA"/>
<path d="M65.3771 47.34C65.4896 57.026 60.3901 61.5165 60.3901 61.5165C60.3901 61.5165 55.1756 57.2481 55.0511 47.5355C54.9241 37.8317 59.935 26.3862 59.935 26.3862C59.935 26.3862 65.2286 37.6214 65.3771 47.34Z" fill="#4FA4DA"/>
<path d="M12.3526 5.97445C17.5192 8.12195 18.7168 13.2967 18.7168 13.2967C18.7168 13.2967 15.2532 16.5165 10.0771 14.3867C4.8961 12.2333 0.000175476 5.52125 0.000175476 5.52125C0.000175476 5.52125 7.18598 3.81509 12.3526 5.97148V5.97445Z" fill="#4FA4DA"/>
</svg>
