<svg xmlns="http://www.w3.org/2000/svg" fill="none" viewBox="0 0 27 27"><path fill="#fff" d="M14 2V1v1Zm7 8h1-1Zm-7 10v1-1Zm-1 0v1-1ZM6 10H5h1Zm8-8v1c3 0 6 3 6 7h2c0-5-4-9-8-9v1Zm7 8h-1l-2 6-5 3 1 1v1l5-3c2-2 3-5 3-8h-1Zm-7 10-1-1h1l-1 1v1h1v-1Zm-1 0 1-1-5-3-2-6H5c0 3 1 6 3 8l5 3v-1ZM6 10h1c0-4 3-7 7-7V1c-5 0-9 4-9 9h1Zm8-3V6c-3 0-5 2-5 4h2c0-1 1-2 3-2V7Zm-4 3H9c0 3 2 5 5 5v-2c-2 0-3-2-3-3h-1Zm4 4v1c2 0 4-2 4-5h-2l-2 3v1Zm3-4h1c0-2-2-4-4-4v2l2 2h1Z"/><path stroke="#fff" stroke-linecap="round" stroke-width="2" d="m22 20 2 1-2 2-3 1a27 27 0 0 1-11 0l-3-1-2-2 2-1"/></svg>