<svg xmlns="http://www.w3.org/2000/svg" fill="none" viewBox="0 0 46 38"><path fill="#4FA4DA" fill-rule="evenodd" d="M18.317.088c-.749.121-1.499.533-2.078 1.14-.85.891-1.121 1.745-1.122 3.534l-.001.906-5.402.031c-6.016.035-5.713.006-7.002.676C1.482 7.015.374 8.482.096 9.84.041 10.112 0 11.369 0 12.819v2.508l11.27 3.756c6.2 2.066 11.371 3.757 11.493 3.757.122 0 5.293-1.69 11.492-3.757l11.27-3.756v-2.508c0-1.45-.04-2.707-.096-2.98-.279-1.366-1.375-2.818-2.615-3.464-1.289-.67-.986-.641-7.002-.676l-5.402-.03v-.907c-.002-1.79-.273-2.643-1.123-3.534A3.746 3.746 0 0 0 27.12.08c-.708-.111-8.11-.104-8.803.008Zm8.18 4.701v.89H19.028V3.9H26.497v.89ZM0 25.86c0 5.07.032 7.708.096 8.024.053.26.26.806.46 1.215.638 1.31 1.809 2.278 3.312 2.738.51.157 1.32.164 18.895.164s18.384-.007 18.895-.164c1.442-.442 2.66-1.426 3.267-2.64.624-1.246.6-.887.6-9.307 0-4.172-.029-7.584-.065-7.584-.036 0-4.989 1.64-11.005 3.645l-10.94 3.646H22.01l-10.94-3.646C5.054 19.945.101 18.305.066 18.305.03 18.305 0 21.704 0 25.858Z" clip-rule="evenodd"/></svg>