<svg xmlns="http://www.w3.org/2000/svg" fill="none" viewBox="0 0 41 38"><path fill="#4FA4DA" fill-rule="evenodd" d="M19.13.03A14.36 14.36 0 0 0 5.83 12.9l-.05.24-.7.05a5.53 5.53 0 0 0-4.9 3.88c-.17.53-.18.63-.18 3.3v2.75l.22.63a5.71 5.71 0 0 0 3.88 3.62c.66.17 2 .26 2.73.2.67-.07 1-.22 1.27-.58.16-.22.16-.26.2-7.12.05-7.4.05-7.26.47-8.78.35-1.25 1.07-2.7 1.85-3.75 1.8-2.4 4.41-4.03 7.4-4.62 1.02-.2 3.12-.19 4.18 0 4.48.85 8.04 4.1 9.28 8.48.39 1.37.39 1.36.43 8.67.05 6.8.05 6.9.2 7.12.1.13.33.3.52.41.34.18.4.18 1.69.14 1.53-.04 1.98-.13 2.94-.61A5.7 5.7 0 0 0 40 23.75l.22-.63.02-2.5c.03-2.13.01-2.61-.1-3.12a5.5 5.5 0 0 0-5-4.31l-.7-.05-.04-.24-.13-.85a15.45 15.45 0 0 0-1.3-4.11 14.75 14.75 0 0 0-6.4-6.42A14.35 14.35 0 0 0 19.13.03ZM5.28 29.21c.18.97.74 2.3 1.37 3.25a11.1 11.1 0 0 0 2.28 2.26 8.29 8.29 0 0 0 4.76 1.43h.99v-1.4l-1.04-.04a6.79 6.79 0 0 1-3.01-.71 6.98 6.98 0 0 1-3.77-4.49 3.73 3.73 0 0 0-.14-.48 7.63 7.63 0 0 0-.76-.06l-.73-.04.05.28ZM17.91 33c-.72.23-1.33.76-1.65 1.43a2.7 2.7 0 0 0-.02 2.06c.29.58.68.98 1.26 1.26l.52.26h4.18l.53-.26a2.6 2.6 0 0 0 1.25-1.26 2.7 2.7 0 0 0-.02-2.06 2.79 2.79 0 0 0-1.21-1.25l-.4-.2-2.12-.02c-1.17-.01-2.22.01-2.32.04Z" clip-rule="evenodd"/></svg>